<?xml version="1.0" encoding="UTF-8" standalone="no"?>
<!-- Created with Inkscape (http://www.inkscape.org/) -->

<svg
   xmlns:dc="http://purl.org/dc/elements/1.1/"
   xmlns:cc="http://creativecommons.org/ns#"
   xmlns:rdf="http://www.w3.org/1999/02/22-rdf-syntax-ns#"
   xmlns:svg="http://www.w3.org/2000/svg"
   xmlns="http://www.w3.org/2000/svg"
   xmlns:sodipodi="http://sodipodi.sourceforge.net/DTD/sodipodi-0.dtd"
   xmlns:inkscape="http://www.inkscape.org/namespaces/inkscape"
   width="480"
   height="192"
   viewBox="0 0 126.99999 50.800001"
   version="1.1"
   id="svg8"
   inkscape:version="0.92.2 (5c3e80d, 2017-08-06)"
   sodipodi:docname="icon-sheet.svg">
  <defs
     id="defs2" />
  <sodipodi:namedview
     id="base"
     pagecolor="#282828"
     bordercolor="#666666"
     borderopacity="1.0"
     inkscape:pageopacity="0"
     inkscape:pageshadow="2"
     inkscape:zoom="2"
     inkscape:cx="237.12138"
     inkscape:cy="94.24865"
     inkscape:document-units="px"
     inkscape:current-layer="layer1"
     showgrid="false"
     inkscape:window-width="1920"
     inkscape:window-height="1027"
     inkscape:window-x="1912"
     inkscape:window-y="-8"
     inkscape:window-maximized="1"
     showguides="true"
     inkscape:guide-bbox="true"
     objecttolerance="10000"
     guidetolerance="10000"
     units="px" />
  <metadata
     id="metadata5">
    <rdf:RDF>
      <cc:Work
         rdf:about="">
        <dc:format>image/svg+xml</dc:format>
        <dc:type
           rdf:resource="http://purl.org/dc/dcmitype/StillImage" />
        <dc:title></dc:title>
      </cc:Work>
    </rdf:RDF>
  </metadata>
  <g
     inkscape:groupmode="layer"
     id="layer2"
     inkscape:label="construction"
     style="display:inline"
     transform="translate(0,-246.19997)" />
  <g
     inkscape:label="Layer 1"
     inkscape:groupmode="layer"
     id="layer1"
     transform="translate(0,-246.19997)">
    <g
       id="g4733"
       inkscape:export-xdpi="98"
       inkscape:export-ydpi="98"
       transform="translate(-3.5749778,281.85543)">
      <rect
         y="2.4445412"
         x="3.5946605"
         height="12.7"
         width="12.7"
         id="rect4517"
         style="display:inline;fill:none;fill-opacity:0.01507538;stroke:none;stroke-width:0.045;stroke-miterlimit:4;stroke-dasharray:none;stroke-opacity:0.96984923" />
      <path
         inkscape:connector-curvature="0"
         id="path4515"
         d="M 7.173535,12.01071 C 5.223064,9.97789 4.387869,9.09367 4.29907,8.96751 3.847556,8.326 3.609525,7.62095 3.578108,6.83198 3.535818,5.77029 3.923535,4.74349 4.650238,3.99253 5.201034,3.42334 5.854767,3.07372 6.64141,2.92761 c 0.325591,-0.0605 0.865981,-0.0605 1.191573,0 0.748827,0.13909 1.36484,0.45634 1.918486,0.98801 l 0.172159,0.16533 0.21189,-0.19786 c 1.007644,-0.94095 2.365958,-1.2446 3.63486,-0.8126 1.035315,0.35249 1.893751,1.20848 2.270965,2.26447 0.161981,0.45348 0.233635,0.86522 0.233635,1.34254 0,0.35662 -0.02301,0.57459 -0.09399,0.89054 -0.140812,0.62679 -0.43564,1.20354 -0.870807,1.70348 -0.11075,0.12724 -0.613781,0.65667 -1.11785,1.17649 -0.504068,0.51982 -1.670916,1.7288 -2.592995,2.68661 l -1.676508,1.74146 z m 5.196502,-0.88323 c 1.656186,-1.72622 2.464463,-2.58317 2.546477,-2.69981 0.237614,-0.3379 0.43013,-0.80812 0.502634,-1.22766 0.04738,-0.27414 0.04653,-0.7647 -0.0018,-1.03049 C 15.072366,4.2714 13.156169,3.21395 11.460694,3.98602 11.084948,4.15713 10.825857,4.36319 10.317303,4.89542 10.111918,5.11036 9.93513,5.28622 9.924438,5.28622 9.913748,5.28622 9.704626,5.07916 9.459723,4.82609 9.102627,4.45707 8.973658,4.3382 8.808492,4.22586 8.472139,3.99708 8.1515,3.86052 7.759738,3.7792 7.5113,3.7276 6.963065,3.7276 6.714627,3.7792 6.156471,3.89506 5.670761,4.15699 5.274494,4.55585 5.014945,4.81709 4.848243,5.05329 4.692236,5.38086 4.464126,5.85982 4.389625,6.22665 4.406069,6.78991 c 0.0084,0.28804 0.02052,0.3994 0.06224,0.57297 0.101101,0.42046 0.253204,0.76065 0.491354,1.09897 0.110424,0.15686 4.925548,5.19456 4.965064,5.19456 0.01044,0 1.110813,-1.13802 2.445292,-2.52893 z"
         style="fill:#aab3b3;fill-opacity:1;stroke-width:0.02060917" />
    </g>
    <rect
       y="284.29999"
       x="12.719683"
       height="12.7"
       width="12.7"
       id="rect4548"
       style="display:inline;fill:#606060;fill-opacity:0.01507538;stroke:none;stroke-width:0.045;stroke-miterlimit:4;stroke-dasharray:none;stroke-opacity:1" />
    <path
       inkscape:connector-curvature="0"
       id="path4550"
       d="m 16.298557,293.86616 c -1.950471,-2.03282 -2.785666,-2.91704 -2.874465,-3.0432 -0.451514,-0.64151 -0.689545,-1.34656 -0.720962,-2.13553 -0.04229,-1.06169 0.345427,-2.08849 1.07213,-2.83945 0.550796,-0.56919 1.204529,-0.91881 1.991172,-1.06492 0.325591,-0.0605 0.865981,-0.0605 1.191573,0 0.748827,0.13909 1.36484,0.45634 1.918486,0.98801 l 0.172159,0.16533 0.21189,-0.19786 c 1.007644,-0.94095 2.365958,-1.2446 3.63486,-0.8126 1.035315,0.35249 1.893751,1.20848 2.270965,2.26447 0.161981,0.45348 0.233635,0.86522 0.233635,1.34254 0,0.35662 -0.02301,0.57459 -0.09399,0.89054 -0.140812,0.62679 -0.43564,1.20354 -0.870807,1.70348 -0.11075,0.12724 -0.613781,0.65667 -1.11785,1.17649 -0.504068,0.51982 -1.670916,1.7288 -2.592995,2.68661 l -1.676508,1.74146 z"
       style="fill:#1db954;fill-opacity:1;stroke-width:0.02060917"
       sodipodi:nodetypes="sccccccccccsscsccs" />
    <rect
       y="284.34009"
       x="25.4"
       height="12.658639"
       width="12.7"
       id="rect4593"
       style="display:inline;fill:none;fill-opacity:0;stroke:none;stroke-width:0.1;stroke-miterlimit:4;stroke-dasharray:none;stroke-opacity:1" />
    <path
       style="fill:#aab3b3;fill-opacity:1;stroke:none;stroke-width:0.09999999;stroke-miterlimit:4;stroke-dasharray:none;stroke-opacity:1"
       d="m 33.953496,295.20631 c -0.28292,-0.37944 -0.39631,-0.90908 -0.194286,-1.2971 0.331288,-0.6363 1.789667,-0.60098 1.928364,-0.96478 0.242459,-0.63597 0.09946,-1.46047 0.142427,-2.194 0.0381,-1.87742 -0.0058,-1.7578 -0.167782,-2.27688 -0.180341,-0.3446 -1.806692,-0.71766 -1.806668,-0.53836 l 1.75e-4,1.3279 c 1.08e-4,0.82655 -3.199641,-1.95422 -3.056747,-2.5634 0.380606,-0.80294 2.848052,-3.01912 3.029978,-2.23403 l 0.0167,1.20825 c -9.12e-4,-0.066 3.552748,-0.20659 4.062005,2.34924 0.03607,0.24695 0.108149,3.38798 -0.01687,5.08223 -0.09399,1.27365 -1.01128,1.68913 -1.837216,2.06142 -0.817961,0.3687 -1.817764,0.44131 -2.100075,0.0395 z"
       id="path4573"
       inkscape:connector-curvature="0"
       sodipodi:nodetypes="casccssccscsscc" />
    <path
       sodipodi:nodetypes="casccssccscsscc"
       inkscape:connector-curvature="0"
       id="path4585"
       d="m 29.568116,286.09365 c 0.28292,0.37944 0.39631,0.90908 0.194286,1.2971 -0.331288,0.6363 -1.789667,0.60098 -1.928364,0.96478 -0.242459,0.63596 -0.09946,1.46046 -0.142427,2.194 -0.0381,1.87741 0.0058,1.7578 0.167783,2.27687 0.18034,0.34461 1.806691,0.71767 1.806668,0.53837 l -1.75e-4,-1.3279 c -1.09e-4,-0.82655 3.19964,1.95422 3.056746,2.5634 -0.380606,0.80294 -2.848052,3.01911 -3.029977,2.23402 l -0.0167,-1.20824 c 9.12e-4,0.066 -3.552748,0.20658 -4.062005,-2.34924 -0.03608,-0.24695 -0.108149,-3.38799 0.01687,-5.08223 0.09399,-1.27365 1.011279,-1.68913 1.837215,-2.06142 0.817961,-0.3687 1.817765,-0.44132 2.100076,-0.0395 z"
       style="fill:#aab3b3;fill-opacity:1;stroke:none;stroke-width:0.09999999;stroke-miterlimit:4;stroke-dasharray:none;stroke-opacity:1" />
    <rect
       style="display:inline;fill:#515151;fill-opacity:0;stroke:none;stroke-width:0.1;stroke-miterlimit:4;stroke-dasharray:none;stroke-opacity:0.5"
       id="rect4595"
       width="12.7"
       height="12.7"
       x="38.099998"
       y="284.29874" />
    <g
       transform="matrix(0.98296013,0,0,0.98296013,-24.238326,266.01911)"
       id="g4601"
       style="fill:#1db954;fill-opacity:0.94117647;stroke:none;stroke-width:0.10173353;stroke-miterlimit:4;stroke-dasharray:none;stroke-opacity:0.5"
       inkscape:export-xdpi="98"
       inkscape:export-ydpi="98">
      <path
         style="fill:#1db954;fill-opacity:0.94117647;stroke:none;stroke-width:0.10173353;stroke-miterlimit:4;stroke-dasharray:none;stroke-opacity:0.5"
         d="m 72.120753,29.687201 c -0.287824,-0.387281 -0.40318,-0.927864 -0.197654,-1.323902 0.337031,-0.649442 1.820692,-0.613396 1.961793,-0.984712 0.246662,-0.649101 0.101181,-1.490634 0.144896,-2.239325 0.03876,-1.9162 -0.0059,-1.794112 -0.170691,-2.323913 -0.183467,-0.351723 -1.838011,-0.732491 -1.837987,-0.54949 l 1.78e-4,1.355339 c 1.1e-4,0.84362 -3.255107,-1.994598 -3.109736,-2.61636 0.387204,-0.819529 2.897424,-3.081487 3.082503,-2.280179 l 0.01699,1.233207 c -9.28e-4,-0.06737 3.614336,-0.210853 4.132421,2.397772 0.0367,0.25205 0.110024,3.457981 -0.01716,5.187229 -0.09562,1.299963 -1.02881,1.724022 -1.869064,2.104006 -0.832141,0.376315 -1.849276,0.450432 -2.136481,0.04033 z"
         id="path4597"
         inkscape:connector-curvature="0"
         sodipodi:nodetypes="casccssccscsscc" />
      <path
         sodipodi:nodetypes="casccssccscsscc"
         inkscape:connector-curvature="0"
         id="path4599"
         d="m 67.659352,20.386274 c 0.287824,0.387281 0.40318,0.927864 0.197654,1.323902 -0.337031,0.649442 -1.820692,0.613396 -1.961793,0.984712 -0.246662,0.649101 -0.101181,1.490634 -0.144896,2.239325 -0.03876,1.9162 0.0059,1.794112 0.170691,2.323913 0.183467,0.351723 1.838011,0.732491 1.837987,0.54949 l -1.78e-4,-1.355339 c -1.1e-4,-0.84362 3.255107,1.994598 3.109736,2.61636 -0.387204,0.819529 -2.897424,3.081487 -3.082503,2.280179 l -0.01699,-1.233207 c 9.28e-4,0.06737 -3.614336,0.210853 -4.132421,-2.397772 -0.0367,-0.25205 -0.110024,-3.457981 0.01716,-5.187229 0.09562,-1.299963 1.02881,-1.724022 1.869064,-2.104006 0.832141,-0.376315 1.849276,-0.450432 2.136481,-0.04033 z"
         style="fill:#1db954;fill-opacity:0.94117647;stroke:none;stroke-width:0.10173353;stroke-miterlimit:4;stroke-dasharray:none;stroke-opacity:0.5" />
    </g>
    <rect
       y="284.26691"
       x="93.737915"
       height="12.7"
       width="12.7"
       id="rect4713"
       style="display:inline;fill:none;fill-opacity:0;stroke:none;stroke-width:0.1;stroke-miterlimit:4;stroke-dasharray:none;stroke-opacity:1"
       inkscape:export-xdpi="95.610718"
       inkscape:export-ydpi="95.610718" />
    <path
       style="fill:#aab3b3;fill-opacity:1;stroke-width:0.26458332"
       d="m 72.767362,296.9008 c -0.16087,-0.0585 -0.009,-1.26386 -0.18815,-1.31254 -0.58855,-0.16035 -0.84451,-0.0712 -1.55143,-0.53302 -0.79042,-0.51633 -1.24436,-1.36369 -1.24436,-1.36369 -0.70725,-1.04147 0.83888,-2.34227 1.70686,-1.01756 0.47342,0.71107 0.9826,0.9295 1.23977,0.66881 0.19836,-0.20108 -0.14436,-1.20799 0.11839,-1.29056 0.54486,-0.0696 3.25203,1.92872 3.26858,2.36755 0.006,0.16437 -0.68492,0.73337 -1.30338,1.23413 -1.42043,1.15011 -1.83715,1.45601 -2.04628,1.24688 z m -8.815818,-3.24879 c 0.229195,-0.2292 0.825098,-0.16773 1.368558,-0.16773 0.97755,0 1.00238,-0.0273 2.94973,-3.24115 2.24085,-3.69825 2.87308,-4.43177 3.8198,-4.43177 0.53765,0 0.67349,-0.13026 0.67349,-0.64584 0,-0.35522 -0.0766,-0.85978 0.0522,-0.93934 0.29934,-0.185 3.22576,2.02446 3.21077,2.43451 -0.0163,0.44527 -2.87674,2.72193 -3.19417,2.52574 -0.14697,-0.0908 -0.0822,-0.74622 -0.11839,-1.0371 -0.13508,-1.08533 -0.95165,-0.22934 -2.73234,2.73873 -2.49722,4.16239 -2.51522,4.6054 -4.21445,4.6054 -0.7459,0 -1.722291,-0.0354 -1.896916,-0.21002 -0.573189,-0.48272 -0.23024,-1.30873 0.08174,-1.63143 z m 2.844348,-5.00137 c -0.40281,-1.02098 -0.9396,-1.0698 -1.86042,-0.95911 -0.872701,0.10489 -1.481243,0.18072 -1.432771,-1.0524 0.04197,-1.06766 0.764427,-0.82777 2.016671,-0.82777 1.2945,0 1.44141,0.0698 2.32834,1.10596 0.99375,1.16098 1.25363,1.70936 0.62916,2.28071 -0.52388,0.47931 -1.27152,0.49046 -1.68098,-0.54739 z"
       id="path4711"
       inkscape:connector-curvature="0"
       sodipodi:nodetypes="cssscsccccssssscccsssccssssssss"
       inkscape:export-xdpi="95.610718"
       inkscape:export-ydpi="95.610718" />
    <g
       id="g4725"
       inkscape:export-xdpi="95.610718"
       inkscape:export-ydpi="95.610718"
       transform="translate(-17.197645,281.91063)">
      <rect
         y="2.3893409"
         x="93.397644"
         height="12.7"
         width="12.7"
         id="rect4715"
         style="display:inline;fill:none;fill-opacity:0;stroke:none;stroke-width:0.1;stroke-miterlimit:4;stroke-dasharray:none;stroke-opacity:1" />
      <path
         style="fill:#1db954;fill-opacity:0.94117647;stroke-width:0.26458332"
         d="m 102.69307,15.023241 c -0.16087,-0.05847 -0.009,-1.263861 -0.18815,-1.312543 -0.58855,-0.160347 -0.84451,-0.07123 -1.55143,-0.533017 -0.79042,-0.516335 -1.244359,-1.363687 -1.244359,-1.363687 -0.70725,-1.04147 0.838879,-2.3422773 1.706859,-1.017562 0.47342,0.711064 0.9826,0.929497 1.23977,0.668804 0.19836,-0.201079 -0.14436,-1.207988 0.11839,-1.290554 0.54486,-0.06964 3.25203,1.928719 3.26858,2.367546 0.006,0.164372 -0.68492,0.733375 -1.30338,1.234136 -1.42043,1.150101 -1.83715,1.456004 -2.04628,1.246877 z m -8.815817,-3.248796 c 0.229195,-0.229196 0.825098,-0.167727 1.368558,-0.167727 0.97755,0 1.00238,-0.02729 2.94973,-3.2411463 2.240849,-3.6982535 2.873079,-4.4317711 3.819799,-4.4317711 0.53765,0 0.67349,-0.1302572 0.67349,-0.6458434 0,-0.3552139 -0.0766,-0.8597739 0.0522,-0.9393434 0.29934,-0.185 3.22576,2.0244647 3.21077,2.434517 -0.0163,0.4452657 -2.87674,2.7219229 -3.19417,2.5257399 -0.14697,-0.09084 -0.0822,-0.7462234 -0.11839,-1.0371034 -0.13508,-1.0853269 -0.95165,-0.229342 -2.732339,2.7387274 -2.49722,4.1623963 -2.51522,4.6054023 -4.21445,4.6054023 -0.7459,0 -1.722291,-0.03539 -1.896916,-0.210013 -0.573189,-0.482721 -0.23024,-1.308733 0.08174,-1.631439 z m 2.844348,-5.0013657 c -0.40281,-1.020979 -0.9396,-1.069796 -1.86042,-0.959115 -0.872701,0.104895 -1.481243,0.180727 -1.432771,-1.0523959 0.04197,-1.0676584 0.764427,-0.8277678 2.016671,-0.8277678 1.2945,0 1.44141,0.06978 2.32834,1.1059581 0.99375,1.1609776 1.25363,1.7093566 0.62916,2.280709 -0.52388,0.479311 -1.27152,0.490461 -1.68098,-0.5473884 z"
         id="path4717"
         inkscape:connector-curvature="0"
         sodipodi:nodetypes="cssscsccccssssscccsssccssssssss" />
    </g>
    <g
       id="g4568"
       inkscape:export-xdpi="98"
       inkscape:export-ydpi="98"
       transform="translate(-22.267765,281.94245)">
      <rect
         y="2.2912548"
         x="73.067764"
         height="12.7"
         width="12.7"
         id="rect4544"
         style="fill:none;fill-opacity:1;stroke:none;stroke-width:0.09964663;stroke-miterlimit:4;stroke-dasharray:none;stroke-opacity:1" />
      <path
         sodipodi:nodetypes="casccssccscsscc"
         inkscape:connector-curvature="0"
         id="path837"
         d="m 81.619458,13.211223 c -0.28292,-0.380682 -0.39631,-0.912053 -0.194286,-1.301343 0.331288,-0.638376 1.789667,-0.602944 1.928364,-0.967933 0.242459,-0.63804 0.09946,-1.4652334 0.142427,-2.2011668 0.0381,-1.8835482 -0.0058,-1.7635405 -0.167782,-2.2843138 C 83.14784,6.1107367 81.521489,5.736457 81.521513,5.9163397 l 1.75e-4,1.3322442 C 81.521796,8.0778287 78.322047,5.2879735 78.464941,4.6768063 78.845547,3.871242 81.312993,1.6478274 81.494919,2.4354812 l 0.0167,1.2121934 c -9.12e-4,-0.066222 3.552748,-0.2072601 4.062005,2.3569142 0.03608,0.2477551 0.108149,3.3990575 -0.01687,5.0988392 -0.09399,1.277812 -1.01128,1.694645 -1.837216,2.068154 -0.817961,0.369903 -1.817764,0.442757 -2.100075,0.03964 z"
         style="fill:#1db954;fill-opacity:0.94117647;stroke:none;stroke-width:0.1;stroke-miterlimit:4;stroke-dasharray:none;stroke-opacity:0.5" />
      <path
         style="fill:#1db954;fill-opacity:0.94117647;stroke:none;stroke-width:0.1;stroke-miterlimit:4;stroke-dasharray:none;stroke-opacity:0.5"
         d="m 77.234078,4.0687825 c 0.28292,0.3806818 0.39631,0.9120534 0.194286,1.3013429 C 77.097076,6.008501 75.638697,5.9730692 75.5,6.3380581 c -0.242459,0.6380404 -0.09946,1.4652337 -0.142427,2.2011672 -0.0381,1.8835477 0.0058,1.7635407 0.167783,2.2843137 0.18034,0.34573 1.806691,0.72001 1.806668,0.540127 l -1.75e-4,-1.332244 c -1.09e-4,-0.8292452 3.19964,1.96061 3.056746,2.571777 -0.380606,0.805565 -2.848052,3.028979 -3.029977,2.241325 l -0.0167,-1.212193 c 9.12e-4,0.06622 -3.552748,0.20726 -4.062005,-2.356914 -0.03607,-0.247755 -0.108149,-3.3990578 0.01687,-5.0988396 0.09399,-1.2778118 1.011279,-1.6946449 1.837215,-2.068154 0.817961,-0.3699027 1.817765,-0.4427567 2.100076,-0.039643 z"
         id="path839"
         inkscape:connector-curvature="0"
         sodipodi:nodetypes="casccssccscsscc" />
      <circle
         r="3.4859018"
         cy="10.938503"
         cx="81.739281"
         id="path4538"
         style="fill:#22da63;fill-opacity:1;stroke:#127435;stroke-width:0.45149645;stroke-miterlimit:4;stroke-dasharray:none;stroke-opacity:1" />
      <text
         id="text4542"
         y="12.920231"
         x="80.005249"
         style="font-style:normal;font-variant:normal;font-weight:normal;font-stretch:normal;font-size:5.32535124px;line-height:1.25;font-family:'DejaVu Sans Mono';-inkscape-font-specification:'DejaVu Sans Mono';letter-spacing:0px;word-spacing:0px;fill:#282828;fill-opacity:1;stroke:none;stroke-width:0.13313377"
         xml:space="preserve"><tspan
           style="font-style:normal;font-variant:normal;font-weight:normal;font-stretch:normal;font-family:'DejaVu Sans Mono';-inkscape-font-specification:'DejaVu Sans Mono';fill:#282828;fill-opacity:1;stroke-width:0.13313377"
           y="12.920231"
           x="80.005249"
           id="tspan4540"
           sodipodi:role="line">1</tspan></text>
    </g>
  </g>
</svg>
